<?xml version="1.0" encoding="utf-8"?>
<!-- Generator: Adobe Illustrator 16.0.0, SVG Export Plug-In . SVG Version: 6.00 Build 0)  -->
<!DOCTYPE svg PUBLIC "-//W3C//DTD SVG 1.1//EN" "http://www.w3.org/Graphics/SVG/1.1/DTD/svg11.dtd">
<svg version="1.1" id="Layer_1" xmlns="http://www.w3.org/2000/svg" xmlns:xlink="http://www.w3.org/1999/xlink" x="0px" y="0px"
	 width="271.579px" height="117.895px" viewBox="0 0 271.579 117.895" enable-background="new 0 0 271.579 117.895"
	 xml:space="preserve">
<g>
	<text transform="matrix(1.1221 0 0 1 46.7817 63.3774)" display="none"><tspan x="0" y="0" display="inline" font-family="'Medium'" font-size="66.672" letter-spacing="-6.238">a</tspan><tspan x="36.603" y="0" display="inline" font-family="'Medium'" font-size="66.672" letter-spacing="-6.238">p</tspan><tspan x="73.272" y="0" display="inline" font-family="'Medium'" font-size="66.672" letter-spacing="-6.238">ture</tspan><tspan x="178.145" y="0" display="inline" font-family="'Medium'" font-size="66.672">.</tspan></text>
	<g>
		<defs>
			<path id="SVGID_1_" d="M56.059,46.909c0-6.068,5.387-11.001,12.195-11.001c6.734,0,13.318,4.934,13.318,11.001
				c0,6.134-6.584,10.868-13.318,10.868C61.446,57.777,56.059,52.91,56.059,46.909 M49.025,46.776
				c0,9.401,8.53,17.135,19.229,17.135c4.564,0,8.679-1.4,11.896-3.734c0.524-0.333,0.974-0.8,1.347-1.133v1.667v2.402h7.409V29.974
				h-7.409v3.133v1.534c-0.447-0.4-0.897-0.934-1.347-1.334c-3.366-2.266-7.481-3.667-11.896-3.667
				C57.555,29.64,49.025,37.374,49.025,46.776"/>
		</defs>
		<clipPath id="SVGID_2_">
			<use xlink:href="#SVGID_1_"  overflow="visible"/>
		</clipPath>
		
			<linearGradient id="SVGID_3_" gradientUnits="userSpaceOnUse" x1="-255.1807" y1="507.1045" x2="-254.2758" y2="507.1045" gradientTransform="matrix(231.665 0 0 -231.665 59165.4258 117525.1719)">
			<stop  offset="0" style="stop-color:#499DD6"/>
			<stop  offset="0.0071" style="stop-color:#499DD6"/>
			<stop  offset="0.2545" style="stop-color:#62C3A6"/>
			<stop  offset="1" style="stop-color:#FCC965"/>
		</linearGradient>
		<rect x="49.025" y="29.64" clip-path="url(#SVGID_2_)" fill="url(#SVGID_3_)" width="39.881" height="34.271"/>
	</g>
	<g>
		<defs>
			<path id="SVGID_4_" d="M100.199,46.509c0-6.134,5.612-10.935,12.495-10.935c6.658,0,11.896,4.8,11.896,10.935
				c0,6.066-5.238,10.8-11.896,10.8C105.811,57.31,100.199,52.575,100.199,46.509 M100.124,32.574v-2.6h-7.705v47.271h7.705V59.844
				c3.143,3.201,8.38,3.866,12.57,3.866c11.822,0,19.229-7.734,19.229-17.201c0-10.334-8.604-17.003-19.229-17.003
				C107.53,29.506,103.79,30.24,100.124,32.574"/>
		</defs>
		<clipPath id="SVGID_5_">
			<use xlink:href="#SVGID_4_"  overflow="visible"/>
		</clipPath>
		
			<linearGradient id="SVGID_6_" gradientUnits="userSpaceOnUse" x1="-255.1812" y1="507.0752" x2="-254.2747" y2="507.0752" gradientTransform="matrix(231.665 0 0 -231.665 59165.4258 117525.1719)">
			<stop  offset="0" style="stop-color:#499DD6"/>
			<stop  offset="0.0071" style="stop-color:#499DD6"/>
			<stop  offset="0.2545" style="stop-color:#62C3A6"/>
			<stop  offset="1" style="stop-color:#FCC965"/>
		</linearGradient>
		<rect x="92.418" y="29.506" clip-path="url(#SVGID_5_)" fill="url(#SVGID_6_)" width="39.504" height="47.739"/>
	</g>
	<g>
		<defs>
			<polygon id="SVGID_7_" points="140.823,16.705 140.823,30.106 130.87,30.106 130.87,36.307 140.823,36.307 140.823,63.444 
				148.377,63.444 148.377,36.307 157.805,36.307 157.805,30.106 148.377,30.106 148.377,16.705 			"/>
		</defs>
		<clipPath id="SVGID_8_">
			<use xlink:href="#SVGID_7_"  overflow="visible"/>
		</clipPath>
		
			<linearGradient id="SVGID_9_" gradientUnits="userSpaceOnUse" x1="-255.1807" y1="507.1338" x2="-254.2757" y2="507.1338" gradientTransform="matrix(231.665 0 0 -231.665 59165.4258 117525.1719)">
			<stop  offset="0" style="stop-color:#499DD6"/>
			<stop  offset="0.0071" style="stop-color:#499DD6"/>
			<stop  offset="0.2545" style="stop-color:#62C3A6"/>
			<stop  offset="1" style="stop-color:#FCC965"/>
		</linearGradient>
		<rect x="130.87" y="16.705" clip-path="url(#SVGID_8_)" fill="url(#SVGID_9_)" width="26.936" height="46.739"/>
	</g>
	<g>
		<defs>
			<path id="SVGID_10_" d="M187.058,30.106v4.868v12.135v0.4c-0.074,5.8-5.91,10.067-11.298,10.067
				c-7.182,0-11.447-4.267-11.447-10.134V34.907v-4.801h-7.706v17.336c0,9.067,7.856,16.401,19.153,16.401
				c4.489,0,8.306-2,11.224-4.867v4.2h7.558V30.106H187.058z"/>
		</defs>
		<clipPath id="SVGID_11_">
			<use xlink:href="#SVGID_10_"  overflow="visible"/>
		</clipPath>
		
			<linearGradient id="SVGID_12_" gradientUnits="userSpaceOnUse" x1="-255.1792" y1="507.1035" x2="-254.2762" y2="507.1035" gradientTransform="matrix(231.665 0 0 -231.665 59165.4258 117525.1719)">
			<stop  offset="0" style="stop-color:#499DD6"/>
			<stop  offset="0.0071" style="stop-color:#499DD6"/>
			<stop  offset="0.2545" style="stop-color:#62C3A6"/>
			<stop  offset="1" style="stop-color:#FCC965"/>
		</linearGradient>
		<rect x="156.607" y="30.106" clip-path="url(#SVGID_11_)" fill="url(#SVGID_12_)" width="37.935" height="33.738"/>
	</g>
	<g>
		<defs>
			<path id="SVGID_13_" d="M204.863,33.107v-3.066h-7.856v33.336h7.856V43.242c1.347-7.935,11.972-7.268,11.897-7.268v-6.067
				C209.052,29.907,207.93,30.907,204.863,33.107"/>
		</defs>
		<clipPath id="SVGID_14_">
			<use xlink:href="#SVGID_13_"  overflow="visible"/>
		</clipPath>
		
			<linearGradient id="SVGID_15_" gradientUnits="userSpaceOnUse" x1="-255.1782" y1="507.1045" x2="-254.2762" y2="507.1045" gradientTransform="matrix(231.665 0 0 -231.665 59165.4258 117525.1719)">
			<stop  offset="0" style="stop-color:#499DD6"/>
			<stop  offset="0.0071" style="stop-color:#499DD6"/>
			<stop  offset="0.2545" style="stop-color:#62C3A6"/>
			<stop  offset="1" style="stop-color:#FCC965"/>
		</linearGradient>
		<rect x="197.006" y="29.907" clip-path="url(#SVGID_14_)" fill="url(#SVGID_15_)" width="19.828" height="33.47"/>
	</g>
	<g>
		<defs>
			<path id="SVGID_16_" d="M221.918,42.308c1.871-3.866,5.986-6.733,11.073-6.733c4.863,0,8.904,2.733,10.85,6.4
				c0.224,0.533,0.598,1.067,0.822,1.6h-2.244h-19.753h-1.271C221.47,43.176,221.695,42.775,221.918,42.308 M213.837,46.708
				c0,9.402,8.529,17.203,19.154,17.203c7.632,0,14.965-3.867,18.556-11.668h-7.931c-1.945,3.467-5.985,5.468-10.625,5.468
				c-6.061,0-10.849-4.001-11.822-9.135h20.127h3.815h6.886c0.074-0.533,0.074-1.267,0.074-1.868c0-9.467-8.529-17.267-19.08-17.267
				C222.367,29.441,213.837,37.241,213.837,46.708"/>
		</defs>
		<clipPath id="SVGID_17_">
			<use xlink:href="#SVGID_16_"  overflow="visible"/>
		</clipPath>
		
			<linearGradient id="SVGID_18_" gradientUnits="userSpaceOnUse" x1="-255.1792" y1="507.1045" x2="-254.2755" y2="507.1045" gradientTransform="matrix(231.665 0 0 -231.665 59165.4258 117525.1719)">
			<stop  offset="0" style="stop-color:#499DD6"/>
			<stop  offset="0.0071" style="stop-color:#499DD6"/>
			<stop  offset="0.2545" style="stop-color:#62C3A6"/>
			<stop  offset="1" style="stop-color:#FCC965"/>
		</linearGradient>
		<rect x="213.837" y="29.441" clip-path="url(#SVGID_17_)" fill="url(#SVGID_18_)" width="38.234" height="34.47"/>
	</g>
	<g>
		<defs>
			<rect id="SVGID_19_" x="251.469" y="56.91" width="7.257" height="6.467"/>
		</defs>
		<clipPath id="SVGID_20_">
			<use xlink:href="#SVGID_19_"  overflow="visible"/>
		</clipPath>
		
			<linearGradient id="SVGID_21_" gradientUnits="userSpaceOnUse" x1="-255.1772" y1="507.0459" x2="-254.2758" y2="507.0459" gradientTransform="matrix(231.665 0 0 -231.665 59165.4258 117525.1719)">
			<stop  offset="0" style="stop-color:#499DD6"/>
			<stop  offset="0.0071" style="stop-color:#499DD6"/>
			<stop  offset="0.2545" style="stop-color:#62C3A6"/>
			<stop  offset="1" style="stop-color:#FCC965"/>
		</linearGradient>
		<rect x="251.469" y="56.91" clip-path="url(#SVGID_20_)" fill="url(#SVGID_21_)" width="7.257" height="6.467"/>
	</g>
	<polygon fill="#499DD6" points="24.124,48.8 57.682,14.655 45.385,14.655 24.124,36.198 	"/>
	<polygon fill="#499DD6" points="24.124,29.186 57.682,63.377 45.385,63.377 24.124,41.789 	"/>
	<path fill="#499DD6" d="M40.874,83.189l-17.655,20.61L5.549,83.687c-0.111-0.127-0.436-0.059-0.436,0.1v9.707l18.104,20.551
		L41.322,92.97v-9.679C41.322,83.125,40.987,83.056,40.874,83.189"/>
	<rect x="18.692" y="14.655" fill="#499DD6" width="9.053" height="90.605"/>
</g>
<rect id="_x3C_Slice_x3E_" x="-0.842" y="-0.421" fill="none" width="269" height="116"/>
</svg>
